<?xml version='1.0' encoding='utf-8'?>
<mxfile host="app.diagrams.net" modified="2025-08-17T03:51:47.972524Z" agent="python/3" version="22.0.0" type="device"><diagram id="Cap2Group" name="Capítulo 2 — Nombres significativos (grupos)"><mxGraphModel dx="1222" dy="686" grid="1" gridSize="10" guides="1" tooltips="1" connect="1" arrows="1" fold="1" page="1" pageScale="1" pageWidth="2200" pageHeight="1300" math="0" shadow="0"><root><mxCell id="0" /><mxCell id="1" parent="0" /><mxCell id="T" value="Capítulo 2 — Nombres significativos (Mapa conceptual)" vertex="1" parent="1" style="rounded=0;whiteSpace=wrap;html=1;fontSize=24;fontStyle=1;align=center;strokeWidth=2;"><mxGeometry x="120" y="10" width="1400" height="60" as="geometry" /></mxCell><mxCell id="A" value="Nombres significativos (Capítulo 2)" vertex="1" parent="1" style="rounded=1;whiteSpace=wrap;html=1;fontSize=14;"><mxGeometry x="740" y="120" width="320" height="60" as="geometry" /></mxCell><mxCell id="C_req" value="Requiere" vertex="1" parent="1" style="swimlane;rounded=1;html=1;fontSize=15;horizontal=0;childLayout=flowLayout;"><mxGeometry x="60" y="240" width="420" height="320" as="geometry" /></mxCell><mxCell id="C_evi" value="Evita" vertex="1" parent="1" style="swimlane;rounded=1;html=1;fontSize=15;horizontal=0;childLayout=flowLayout;"><mxGeometry x="520" y="240" width="420" height="360" as="geometry" /></mxCell><mxCell id="C_gui" value="Guía" vertex="1" parent="1" style="swimlane;rounded=1;html=1;fontSize=15;horizontal=0;childLayout=flowLayout;"><mxGeometry x="980" y="240" width="420" height="220" as="geometry" /></mxCell><mxCell id="C_deb" value="Deben ser" vertex="1" parent="1" style="swimlane;rounded=1;html=1;fontSize=15;horizontal=0;childLayout=flowLayout;"><mxGeometry x="1460" y="240" width="460" height="220" as="geometry" /></mxCell><mxCell id="req1" value="Pronunciables" vertex="1" parent="C_req" style="rounded=1;whiteSpace=wrap;html=1;fontSize=14;"><mxGeometry x="20" y="40" width="360" height="50" as="geometry" /></mxCell><mxCell id="req2" value="Buscables" vertex="1" parent="C_req" style="rounded=1;whiteSpace=wrap;html=1;fontSize=14;"><mxGeometry x="20" y="100" width="360" height="50" as="geometry" /></mxCell><mxCell id="evi1" value="Desinformación" vertex="1" parent="C_evi" style="rounded=1;whiteSpace=wrap;html=1;fontSize=14;"><mxGeometry x="20" y="40" width="360" height="50" as="geometry" /></mxCell><mxCell id="evi2" value="Codificaciones" vertex="1" parent="C_evi" style="rounded=1;whiteSpace=wrap;html=1;fontSize=14;"><mxGeometry x="20" y="100" width="360" height="50" as="geometry" /></mxCell><mxCell id="evi3" value="Mapeo mental" vertex="1" parent="C_evi" style="rounded=1;whiteSpace=wrap;html=1;fontSize=14;"><mxGeometry x="20" y="160" width="360" height="50" as="geometry" /></mxCell><mxCell id="evi4" value="Contexto gratuito" vertex="1" parent="C_evi" style="rounded=1;whiteSpace=wrap;html=1;fontSize=14;"><mxGeometry x="20" y="220" width="360" height="50" as="geometry" /></mxCell><mxCell id="gui1" value="Nombres de clases" vertex="1" parent="C_gui" style="rounded=1;whiteSpace=wrap;html=1;fontSize=14;"><mxGeometry x="20" y="40" width="360" height="50" as="geometry" /></mxCell><mxCell id="gui2" value="Nombres de métodos" vertex="1" parent="C_gui" style="rounded=1;whiteSpace=wrap;html=1;fontSize=14;"><mxGeometry x="20" y="100" width="360" height="50" as="geometry" /></mxCell><mxCell id="deb1" value="Sustantivos claros (clases)" vertex="1" parent="C_deb" style="rounded=1;whiteSpace=wrap;html=1;fontSize=14;"><mxGeometry x="20" y="40" width="400" height="50" as="geometry" /></mxCell><mxCell id="deb2" value="Verbos claros (métodos)" vertex="1" parent="C_deb" style="rounded=1;whiteSpace=wrap;html=1;fontSize=14;"><mxGeometry x="20" y="100" width="400" height="50" as="geometry" /></mxCell><mxCell id="B" value="Se logra con → Revelar intención" vertex="1" parent="1" style="rounded=1;whiteSpace=wrap;html=1;fontSize=14;"><mxGeometry x="60" y="600" width="420" height="60" as="geometry" /></mxCell><mxCell id="D" value="Exige → Diferenciación con sentido" vertex="1" parent="1" style="rounded=1;whiteSpace=wrap;html=1;fontSize=14;"><mxGeometry x="520" y="620" width="420" height="60" as="geometry" /></mxCell><mxCell id="P" value="Ajusta a → Longitud según alcance" vertex="1" parent="1" style="rounded=1;whiteSpace=wrap;html=1;fontSize=14;"><mxGeometry x="980" y="480" width="420" height="60" as="geometry" /></mxCell><mxCell id="M" value="Promueve → Consistencia léxica" vertex="1" parent="1" style="rounded=1;whiteSpace=wrap;html=1;fontSize=14;"><mxGeometry x="980" y="700" width="420" height="60" as="geometry" /></mxCell><mxCell id="S" value="Implica → Una palabra por concepto" vertex="1" parent="1" style="rounded=1;whiteSpace=wrap;html=1;fontSize=14;"><mxGeometry x="1460" y="700" width="460" height="60" as="geometry" /></mxCell><mxCell id="N" value="Aplica → Agregar contexto útil" vertex="1" parent="1" style="rounded=1;whiteSpace=wrap;html=1;fontSize=14;"><mxGeometry x="60" y="680" width="420" height="60" as="geometry" /></mxCell><mxCell id="Q" value="Recomienda → No ser ingenioso" vertex="1" parent="1" style="rounded=1;whiteSpace=wrap;html=1;fontSize=14;"><mxGeometry x="520" y="700" width="420" height="60" as="geometry" /></mxCell><mxCell id="R" value="Usa → Vocabulario del dominio" vertex="1" parent="1" style="rounded=1;whiteSpace=wrap;html=1;fontSize=14;"><mxGeometry x="980" y="560" width="420" height="60" as="geometry" /></mxCell><mxCell id="e1001" value="requiere" style="edgeStyle=orthogonalEdgeStyle;rounded=1;endArrow=block;endFill=1;html=1;fontSize=12;" edge="1" parent="1" source="A" target="C_req"><mxGeometry relative="1" as="geometry" /></mxCell><mxCell id="e1002" value="evita" style="edgeStyle=orthogonalEdgeStyle;rounded=1;endArrow=block;endFill=1;html=1;fontSize=12;" edge="1" parent="1" source="A" target="C_evi"><mxGeometry relative="1" as="geometry" /></mxCell><mxCell id="e1003" value="guía" style="edgeStyle=orthogonalEdgeStyle;rounded=1;endArrow=block;endFill=1;html=1;fontSize=12;" edge="1" parent="1" source="A" target="C_gui"><mxGeometry relative="1" as="geometry" /></mxCell><mxCell id="e1004" value="deben ser" style="edgeStyle=orthogonalEdgeStyle;rounded=1;endArrow=block;endFill=1;html=1;fontSize=12;" edge="1" parent="1" source="A" target="C_deb"><mxGeometry relative="1" as="geometry" /></mxCell><mxCell id="e1005" value="se logra con" style="edgeStyle=orthogonalEdgeStyle;rounded=1;endArrow=block;endFill=1;html=1;fontSize=12;" edge="1" parent="1" source="A" target="B"><mxGeometry relative="1" as="geometry" /></mxCell><mxCell id="e1006" value="exige" style="edgeStyle=orthogonalEdgeStyle;rounded=1;endArrow=block;endFill=1;html=1;fontSize=12;" edge="1" parent="1" source="A" target="D"><mxGeometry relative="1" as="geometry" /></mxCell><mxCell id="e1007" value="ajusta a" style="edgeStyle=orthogonalEdgeStyle;rounded=1;endArrow=block;endFill=1;html=1;fontSize=12;" edge="1" parent="1" source="A" target="P"><mxGeometry relative="1" as="geometry" /></mxCell><mxCell id="e1008" value="promueve" style="edgeStyle=orthogonalEdgeStyle;rounded=1;endArrow=block;endFill=1;html=1;fontSize=12;" edge="1" parent="1" source="A" target="M"><mxGeometry relative="1" as="geometry" /></mxCell><mxCell id="e1009" value="implica" style="edgeStyle=orthogonalEdgeStyle;rounded=1;endArrow=block;endFill=1;html=1;fontSize=12;" edge="1" parent="1" source="M" target="S"><mxGeometry relative="1" as="geometry" /></mxCell><mxCell id="e1010" value="aplica" style="edgeStyle=orthogonalEdgeStyle;rounded=1;endArrow=block;endFill=1;html=1;fontSize=12;" edge="1" parent="1" source="A" target="N"><mxGeometry relative="1" as="geometry" /></mxCell><mxCell id="e1011" value="recomienda" style="edgeStyle=orthogonalEdgeStyle;rounded=1;endArrow=block;endFill=1;html=1;fontSize=12;" edge="1" parent="1" source="A" target="Q"><mxGeometry relative="1" as="geometry" /></mxCell><mxCell id="e1012" value="usa" style="edgeStyle=orthogonalEdgeStyle;rounded=1;endArrow=block;endFill=1;html=1;fontSize=12;" edge="1" parent="1" source="A" target="R"><mxGeometry relative="1" as="geometry" /></mxCell></root></mxGraphModel></diagram></mxfile>